Coordinates
version=1
nRows=16
nColumns=63
inDegrees=yes

Units are S.I. units (second, meters, Newtons, ...)
If the header above contains a line with 'inDegrees', this indicates whether rotational values are in degrees (yes) or radians (no).

endheader
time	pelvis_tilt	pelvis_list	pelvis_rotation	pelvis_tx	pelvis_ty	pelvis_tz	hip_flexion_r	hip_adduction_r	hip_rotation_r	knee_angle_r	knee_angle_r_beta	ankle_angle_r	subtalar_angle_r	mtp_angle_r	hip_flexion_l	hip_adduction_l	hip_rotation_l	knee_angle_l	knee_angle_l_beta	ankle_angle_l	subtalar_angle_l	mtp_angle_l	L5_S1_Flex_Ext	L5_S1_Lat_Bending	L5_S1_axial_rotation	L4_L5_Flex_Ext	L4_L5_Lat_Bending	L4_L5_axial_rotation	L3_L4_Flex_Ext	L3_L4_Lat_Bending	L3_L4_axial_rotation	L2_L3_Flex_Ext	L2_L3_Lat_Bending	L2_L3_axial_rotation	L1_L2_Flex_Ext	L1_L2_Lat_Bending	L1_L2_axial_rotation	L1_T12_Flex_Ext	L1_T12_Lat_Bending	L1_T12_axial_rotation	Abs_r3	Abs_r2	Abs_r1	Abs_t1	Abs_t2	neck_flexion	neck_bending	neck_rotation	arm_flex_r	arm_add_r	arm_rot_r	elbow_flex_r	pro_sup_r	wrist_flex_r	wrist_dev_r	arm_flex_l	arm_add_l	arm_rot_l	elbow_flex_l	pro_sup_l	wrist_flex_l	wrist_dev_l
3.195652	5.784220	-4.487999	90.668547	-0.106302	0.813865	0.669903	3.813313	2.216892	-3.845951	7.243169	0.126417	22.224287	10.031057	0.000000	2.413595	-3.515206	0.410903	2.565385	0.044774	23.932639	-4.563461	0.000000	0.041419	1.032773	0.247423	0.076919	1.373588	0.262887	0.068047	2.511085	0.262887	0.047338	2.511085	0.216495	0.038462	2.106031	0.201031	0.023667	1.599766	0.185567	0.295851	11.682936	1.376093	0.000000	0.000000	27.366624	-3.215828	14.560186	2.781936	-18.029102	43.321888	26.627937	69.569147	-6.187927	-5.346812	15.645882	-5.958045	103.175384	23.242002	58.869052	-12.391450	-4.897508
3.217391	5.808969	-4.477798	90.737245	-0.106278	0.814095	0.669647	3.770029	2.261408	-3.658062	7.141317	0.124639	22.090966	9.753025	0.000000	2.424852	-3.556239	0.078799	2.611320	0.045576	24.254657	-3.938893	0.000000	0.044625	1.031529	0.228067	0.082872	1.371933	0.242321	0.073314	2.508059	0.242321	0.051001	2.508059	0.199558	0.041438	2.103494	0.185304	0.025499	1.597838	0.171050	0.318749	11.668861	1.268438	0.000000	0.000000	27.377326	-3.125513	14.527234	3.017117	-18.080574	44.489774	26.404206	67.971063	-6.051197	-5.680011	15.764661	-5.941127	103.797944	23.410153	59.303966	-12.468710	-4.913047
3.239130	5.844678	-4.509709	90.762176	-0.106235	0.814237	0.669623	3.822928	2.300772	-3.628252	7.097936	0.123882	22.001367	9.750253	0.000000	2.485706	-3.600438	0.030095	2.649347	0.046240	24.441139	-3.780836	0.000000	0.049583	1.032436	0.214133	0.092081	1.373139	0.227517	0.081460	2.510264	0.227517	0.056668	2.510264	0.187367	0.046043	2.105343	0.173983	0.028332	1.599243	0.160600	0.354167	11.679117	1.190946	0.000000	0.000000	27.378991	-3.037546	14.529657	3.235405	-18.126793	45.382170	26.225163	66.739714	-5.887916	-5.921855	15.903808	-5.901670	104.558496	23.530401	59.281062	-12.532828	-5.014139
3.260870	5.892164	-4.558339	90.752062	-0.106124	0.814340	0.669886	3.921515	2.365840	-3.465838	7.047737	0.123006	21.874581	9.587638	0.000000	2.614086	-3.674178	-0.368077	2.769633	0.048339	24.710697	-3.219740	0.000000	0.051953	1.033769	0.206452	0.096482	1.374912	0.219355	0.085354	2.513505	0.219355	0.059377	2.513505	0.180645	0.048244	2.108061	0.167742	0.029686	1.601307	0.154839	0.371095	11.694196	1.148221	0.000000	0.000000	27.396654	-3.057908	14.379449	3.531724	-18.168251	46.533593	26.000537	65.186848	-5.832069	-6.227064	16.092152	-5.848298	105.488114	23.640730	58.771098	-12.642581	-5.098630
3.282609	5.944423	-4.646244	90.684780	-0.105970	0.814354	0.670391	4.105905	2.426048	-3.401202	7.039618	0.122865	21.777605	9.628241	0.000000	2.790561	-3.748111	-0.585394	2.886943	0.050387	24.867020	-3.019407	0.000000	0.055040	1.036523	0.210602	0.102215	1.378576	0.223764	0.090425	2.520203	0.223764	0.062905	2.520203	0.184276	0.051110	2.113679	0.171114	0.031450	1.605575	0.157951	0.393146	11.725360	1.171303	0.000000	0.000000	27.412730	-3.040725	14.314775	3.801018	-18.196344	47.414739	25.819121	63.920776	-5.805714	-6.462538	16.309548	-5.764988	106.479255	23.718367	57.998848	-12.654588	-5.176246
3.304348	5.996186	-4.775803	90.575744	-0.105796	0.814270	0.671129	4.374036	2.476694	-3.425469	7.070856	0.123410	21.711792	9.832505	0.000000	3.020763	-3.817546	-0.691679	3.006232	0.052469	24.952878	-3.045206	0.000000	0.059040	1.040241	0.225130	0.109644	1.383521	0.239201	0.096998	2.529243	0.239201	0.067477	2.529243	0.196989	0.054825	2.121260	0.182918	0.033736	1.611334	0.168848	0.421720	11.767417	1.252108	0.000000	0.000000	27.424977	-2.967604	14.374842	4.027435	-18.208246	47.942718	25.693711	63.072212	-5.803517	-6.620794	16.539915	-5.664217	107.391744	23.783314	57.094374	-12.521470	-5.235643
3.326087	6.051378	-4.940603	90.433378	-0.105621	0.814099	0.672075	4.712110	2.527117	-3.464943	7.134972	0.124529	21.665951	10.087734	0.000000	3.298091	-3.890587	-0.836556	3.129532	0.054621	25.021300	-3.057926	0.000000	0.063546	1.045321	0.251235	0.118012	1.390277	0.266938	0.104400	2.541594	0.266938	0.072627	2.541594	0.219831	0.059009	2.131619	0.204129	0.036310	1.619203	0.188426	0.453904	11.824884	1.397295	0.000000	0.000000	27.431853	-2.859021	14.531558	4.228068	-18.220616	48.264995	25.605201	62.468995	-5.836632	-6.756499	16.783233	-5.544321	108.188145	23.849991	56.084527	-12.220736	-5.276380
3.347826	6.103690	-5.129762	90.263309	-0.105470	0.813867	0.673184	5.101551	2.575934	-3.439861	7.228744	0.126165	21.630715	10.276903	0.000000	3.616464	-3.961707	-1.081549	3.274441	0.057150	25.093938	-2.967724	0.000000	0.067991	1.051420	0.290100	0.126267	1.398389	0.308231	0.111703	2.556424	0.308231	0.077707	2.556424	0.253837	0.063137	2.144057	0.235706	0.038850	1.628650	0.217575	0.485656	11.893879	1.613448	0.000000	0.000000	27.427612	-2.719174	14.790543	4.414762	-18.246611	48.497406	25.541730	62.042974	-5.936581	-6.891975	17.065119	-5.380600	109.055017	23.894920	54.874113	-11.798093	-5.397880
3.369565	6.157894	-5.334748	90.111182	-0.105425	0.813573	0.674359	5.523576	2.613204	-3.528219	7.358529	0.128431	21.637424	10.580846	0.000000	3.955629	-4.023583	-1.139529	3.415304	0.059608	25.101497	-3.113369	0.000000	0.073549	1.059529	0.336267	0.136588	1.409174	0.357284	0.120834	2.576139	0.357284	0.084059	2.576139	0.294233	0.068298	2.160592	0.273217	0.042026	1.641210	0.252200	0.525355	11.985604	1.870215	0.000000	0.000000	27.414554	-2.548161	15.151527	4.512248	-18.271643	48.286269	25.542877	62.098343	-6.005472	-6.936192	17.319642	-5.200598	109.636393	23.939432	53.894726	-11.174669	-5.526221
3.391304	6.202396	-5.542350	89.992349	-0.105490	0.813245	0.675549	5.950945	2.632978	-3.650179	7.507331	0.131028	21.679152	10.876477	0.000000	4.314493	-4.074257	-1.303375	3.584736	0.062565	25.145800	-3.059112	0.000000	0.079898	1.067833	0.385520	0.148378	1.420218	0.409615	0.131264	2.596329	0.409615	0.091315	2.596329	0.337330	0.074193	2.177525	0.313235	0.045654	1.654073	0.289140	0.570701	12.079538	2.144148	0.000000	0.000000	27.393710	-2.353445	15.586160	4.567063	-18.310017	47.902093	25.562758	62.370552	-6.033229	-6.929677	17.557389	-5.016731	110.071196	23.992166	53.024723	-10.388836	-5.699047
3.413043	6.236790	-5.739679	89.907575	-0.105668	0.812906	0.676680	6.358799	2.633046	-3.829153	7.663783	0.133758	21.758786	11.201025	0.000000	4.664949	-4.108885	-1.483632	3.761942	0.065658	25.194628	-2.932467	0.000000	0.086830	1.076301	0.435401	0.161251	1.431480	0.462614	0.142653	2.616918	0.462614	0.099238	2.616918	0.380976	0.080630	2.194793	0.353763	0.049615	1.667190	0.326551	0.620216	12.175333	2.421570	0.000000	0.000000	27.366813	-2.141741	16.076365	4.583174	-18.365024	47.392637	25.594486	62.801649	-5.998397	-6.860659	17.746281	-4.858114	110.215619	24.093955	52.279986	-9.406817	-5.833875
3.434783	6.255561	-5.916697	89.891533	-0.105980	0.812580	0.677724	6.733995	2.608797	-4.050551	7.831890	0.136692	21.880502	11.486167	0.000000	5.003913	-4.123262	-1.695234	3.956635	0.069056	25.256170	-2.660659	0.000000	0.094215	1.084211	0.480213	0.174966	1.442000	0.510227	0.154785	2.636150	0.510227	0.107678	2.636150	0.420187	0.087488	2.210923	0.390173	0.053834	1.679443	0.360160	0.672965	12.264810	2.670802	0.000000	0.000000	27.332431	-1.887082	16.654950	4.567855	-18.432872	46.762284	25.617661	63.392852	-5.850924	-6.709458	17.969667	-4.697377	110.480836	24.229417	51.422054	-8.333919	-6.014322
3.456522	6.270085	-6.069100	89.951725	-0.106448	0.812274	0.678603	7.060058	2.567203	-4.362752	8.001585	0.139654	22.035799	11.785919	0.000000	5.303689	-4.115820	-1.577547	4.126695	0.072024	25.215086	-2.744008	0.000000	0.102992	1.092759	0.512419	0.191266	1.453369	0.544446	0.169206	2.656934	0.544446	0.117710	2.656934	0.448367	0.095638	2.228354	0.416341	0.058850	1.692684	0.384314	0.735662	12.361507	2.849923	0.000000	0.000000	27.301207	-1.626566	17.270748	4.574103	-18.533427	46.322798	25.605023	63.824154	-5.642923	-6.536958	18.143908	-4.575678	110.417118	24.457222	50.906920	-7.148387	-6.024990
3.478261	6.279595	-6.185428	90.122075	-0.107094	0.812012	0.679337	7.314729	2.508273	-4.773294	8.156495	0.142358	22.196110	12.059810	0.000000	5.576022	-4.093932	-1.425795	4.311488	0.075250	25.177977	-2.724129	0.000000	0.111620	1.101210	0.530199	0.207290	1.464610	0.563336	0.183381	2.677482	0.563336	0.127571	2.677482	0.463924	0.103651	2.245588	0.430787	0.063780	1.705775	0.397649	0.797293	12.457110	2.948807	0.000000	0.000000	27.269956	-1.369790	17.871558	4.586668	-18.653346	45.983451	25.546492	64.103596	-5.340526	-6.359155	18.381408	-4.460804	110.424308	24.755398	50.375998	-5.897684	-5.889551
3.500000	6.283461	-6.272464	90.382086	-0.107892	0.811784	0.679885	7.501693	2.434573	-5.222837	8.298175	0.144830	22.343343	12.248955	0.000000	5.813194	-4.055687	-1.185147	4.493363	0.078424	25.107939	-2.696152	0.000000	0.120660	1.109556	0.531414	0.224077	1.475710	0.564628	0.198232	2.697775	0.564628	0.137902	2.697775	0.464987	0.112045	2.262607	0.431774	0.068945	1.718702	0.398561	0.861861	12.551521	2.955567	0.000000	0.000000	27.240355	-1.109857	18.476295	4.613695	-18.793975	45.761966	25.450746	64.245872	-4.940476	-6.184188	18.590207	-4.382687	110.047697	25.160910	50.468917	-4.537637	-5.516446
3.521739	6.275233	-6.328022	90.706451	-0.108793	0.811590	0.680258	7.622801	2.344050	-5.688985	8.434676	0.147213	22.471126	12.358099	0.000000	6.008485	-3.998633	-0.887487	4.669326	0.081495	25.008881	-2.653288	0.000000	0.128862	1.116436	0.520059	0.239310	1.484860	0.552563	0.211708	2.714504	0.552563	0.147277	2.714504	0.455052	0.119662	2.276637	0.422548	0.073632	1.729360	0.390044	0.920451	12.629352	2.892413	0.000000	0.000000	27.212812	-0.897226	18.998852	4.667460	-18.952815	45.709979	25.322676	64.160295	-4.456340	-6.034271	18.784059	-4.338227	109.292521	25.660545	51.256707	-3.041923	-4.907872
